<?xml version="1.0" encoding="UTF-8" standalone="no"?>
<!-- Created with Inkscape (http://www.inkscape.org/) -->

<svg
   width="210mm"
   height="297mm"
   viewBox="0 0 210 297"
   version="1.1"
   id="svg1"
   inkscape:version="1.4.2 (ebf0e940d0, 2025-05-08)"
   sodipodi:docname="figure.svg"
   inkscape:export-filename="figure.pdf"
   inkscape:export-xdpi="96"
   inkscape:export-ydpi="96"
   xmlns:inkscape="http://www.inkscape.org/namespaces/inkscape"
   xmlns:sodipodi="http://sodipodi.sourceforge.net/DTD/sodipodi-0.dtd"
   xmlns="http://www.w3.org/2000/svg"
   xmlns:svg="http://www.w3.org/2000/svg">
  <sodipodi:namedview
     id="namedview1"
     pagecolor="#ffffff"
     bordercolor="#000000"
     borderopacity="0.25"
     inkscape:showpageshadow="2"
     inkscape:pageopacity="0.0"
     inkscape:pagecheckerboard="0"
     inkscape:deskcolor="#d1d1d1"
     inkscape:document-units="mm"
     inkscape:zoom="0.71268238"
     inkscape:cx="397.09134"
     inkscape:cy="561.25984"
     inkscape:window-width="1920"
     inkscape:window-height="1011"
     inkscape:window-x="0"
     inkscape:window-y="0"
     inkscape:window-maximized="1"
     inkscape:current-layer="layer1" />
  <defs
     id="defs1">
    <rect
       x="103.83307"
       y="218.89134"
       width="211.87559"
       height="133.29921"
       id="rect10" />
    <rect
       x="103.83307"
       y="218.89134"
       width="211.8756"
       height="133.29921"
       id="rect10-9" />
  </defs>
  <g
     inkscape:label="Ebene 1"
     inkscape:groupmode="layer"
     id="layer1">
    <rect
       style="opacity:0.285387;fill:#cf8d16;fill-opacity:1;stroke:#000000;stroke-width:0.363785;stroke-opacity:1"
       id="rect9"
       width="210.02831"
       height="297.64328"
       x="0.049602006"
       y="-0.69289923" />
    <ellipse
       style="fill:none;stroke:#000000;stroke-width:0.361273;stroke-opacity:1"
       id="path1"
       cx="114.6719"
       cy="62.843582"
       rx="35.075363"
       ry="40.052223" />
    <ellipse
       style="fill:none;stroke:#000000;stroke-width:0.361273;stroke-opacity:1"
       id="path1-3"
       cx="117.39152"
       cy="218.01189"
       rx="35.075363"
       ry="40.052223" />
    <path
       sodipodi:type="spiral"
       style="fill:none;fill-rule:evenodd;stroke:#000000;stroke-width:0.264583"
       id="path2"
       sodipodi:cx="96.153748"
       sodipodi:cy="55.31625"
       sodipodi:expansion="1"
       sodipodi:revolution="3"
       sodipodi:radius="6.8253479"
       sodipodi:argument="-18.064157"
       sodipodi:t0="0"
       d="m 96.153748,55.31625 c 0.24198,0.24198 -0.206801,0.445569 -0.402188,0.402187 -0.529487,-0.117563 -0.614606,-0.79577 -0.402187,-1.206562 0.379967,-0.734812 1.366658,-0.820894 2.010937,-0.402187 0.945507,0.614469 1.033297,1.94529 0.402187,2.815312 -0.84117,1.159603 -2.526672,1.248305 -3.619687,0.402187 -1.375449,-1.064754 -1.46466,-3.109364 -0.402187,-4.424063 1.286798,-1.592276 3.692794,-1.681795 5.228438,-0.402186 1.809699,1.507976 1.899419,4.276684 0.402186,6.032813 -1.728618,2.02752 -4.860881,2.117373 -6.837188,0.402185 -2.245605,-1.948906 -2.335555,-5.445293 -0.402185,-7.641562 2.168948,-2.463882 6.029863,-2.553902 8.445936,-0.402185 2.6823,2.388813 2.77237,6.614551 0.40219,9.250312"
       transform="matrix(1.2270012,0,0,1.5195039,-16.519075,-31.363757)" />
    <path
       sodipodi:type="spiral"
       style="fill:none;fill-rule:evenodd;stroke:#000000;stroke-width:0.264583"
       id="path2-3"
       sodipodi:cx="96.153748"
       sodipodi:cy="55.31625"
       sodipodi:expansion="1"
       sodipodi:revolution="3"
       sodipodi:radius="6.8253479"
       sodipodi:argument="-18.064157"
       sodipodi:t0="0"
       d="m 96.153748,55.31625 c 0.24198,0.24198 -0.206801,0.445569 -0.402188,0.402187 -0.529487,-0.117563 -0.614606,-0.79577 -0.402187,-1.206562 0.379967,-0.734812 1.366658,-0.820894 2.010937,-0.402187 0.945507,0.614469 1.033297,1.94529 0.402187,2.815312 -0.84117,1.159603 -2.526672,1.248305 -3.619687,0.402187 -1.375449,-1.064754 -1.46466,-3.109364 -0.402187,-4.424063 1.286798,-1.592276 3.692794,-1.681795 5.228438,-0.402186 1.809699,1.507976 1.899419,4.276684 0.402186,6.032813 -1.728618,2.02752 -4.860881,2.117373 -6.837188,0.402185 -2.245605,-1.948906 -2.335555,-5.445293 -0.402185,-7.641562 2.168948,-2.463882 6.029863,-2.553902 8.445936,-0.402185 2.6823,2.388813 2.77237,6.614551 0.40219,9.250312"
       transform="matrix(-0.93848982,-0.97885082,0.79042319,-1.1622148,175.33096,211.10047)" />
    <ellipse
       style="fill:none;stroke:#000000;stroke-width:0.361273;stroke-opacity:1"
       id="path3"
       cx="115.81071"
       cy="80.895294"
       rx="15.260061"
       ry="7.8976212" />
    <ellipse
       style="fill:none;stroke:#000000;stroke-width:0.361273;stroke-opacity:1"
       id="path5"
       cx="108.3048"
       cy="208.03194"
       rx="4.0997176"
       ry="10.436143" />
    <ellipse
       style="fill:none;stroke:#000000;stroke-width:0.361273;stroke-opacity:1"
       id="path5-1"
       cx="127.77496"
       cy="208.0905"
       rx="4.0997176"
       ry="10.436143" />
    <path
       style="fill:none;stroke:#000000;stroke-width:0.361273;stroke-opacity:1"
       d="m 100.55064,233.20657 c 0,0 17.30992,35.53929 35.07537,-0.56412"
       id="path6" />
    <path
       style="fill:#000000;fill-opacity:1;stroke:#000000;stroke-width:0.361273;stroke-opacity:1"
       id="path8"
       d="m 107.39169,109.30096 c -0.10159,2.28017 -0.39993,4.53184 -0.71481,6.77858 -0.31202,2.1771 -0.46388,4.38002 -0.55674,6.58584 -0.0564,1.30302 -0.0636,2.6071 -0.0547,3.91149 0.19369,2.38051 0.33005,4.76424 0.40447,7.15511 0.0564,1.76792 0.0567,3.53721 0.0528,5.30611 -0.0536,0.57298 0.15295,1.38026 -0.19616,1.85182 -0.55128,0.60534 -1.27522,0.91752 -1.96686,1.19123 -1.89343,0.69179 -3.81107,1.31665 -5.745208,1.81485 -1.391002,0.3376 -2.801513,0.529 -4.216966,0.59972 -1.236732,-0.0195 -0.948542,1.26464 -0.608237,2.24981 0.843239,2.1129 1.951143,4.0325 3.077391,5.9233 1.073035,1.71953 2.294318,3.28076 3.61123,4.71251 1.16932,1.19342 2.26961,2.48355 3.40319,3.72698 1.45531,1.65117 2.86202,3.37213 4.12912,5.24745 0.83757,1.37461 1.73761,2.68606 2.61567,4.02049 1.23942,1.88757 3.38814,4.36797 5.26117,3.8395 0.38545,-0.1088 0.75798,-0.40728 1.09429,-0.6354 2.26362,-1.98382 4.55176,-3.92093 6.78799,-5.95303 2.71268,-2.5812 5.59839,-4.845 8.49519,-7.08962 2.2783,-1.61464 4.46161,-3.42446 6.64541,-5.22565 0.45213,-0.49794 1.58653,-0.7613 1.73874,-1.63035 0.0292,-0.1665 -6.5e-4,-0.34076 -0.001,-0.51114 -0.0627,-0.13342 -0.10393,-0.28646 -0.18812,-0.40032 -0.21,-0.28395 -0.78276,-0.73281 -1.02119,-0.90106 -3.47968,-2.45563 -3.77457,-2.93122 -6.48448,-4.05398 -1.72211,-0.63058 -3.49551,-1.04262 -5.27229,-1.35886 -0.72531,-0.19667 -1.57777,-0.0468 -2.26572,-0.4648 -0.12424,-0.0755 -0.4527,-0.39208 -0.33135,-0.30971 1.2709,0.8626 2.52232,1.76852 3.78348,2.65278 -1.06503,-1.378 -1.03207,-3.5923 -1.1333,-5.39177 -0.0869,-1.96475 -0.0731,-3.93293 -0.0694,-5.8997 -0.0147,-2.12973 -0.0365,-4.24963 0.16817,-6.36636 0.28996,-2.40073 0.52648,-4.81192 0.9038,-7.19473 0.3188,-2.20348 0.66969,-4.40138 0.96133,-6.61112 0.16076,-1.14975 0.34764,-2.28163 0.0222,-3.40317 -2.73921,-4.10374 -5.08605,-3.95096 -8.38096,-3.1956 -1.83361,0.4837 -3.69617,0.72909 -5.56471,0.87255 -0.94132,0.0514 -0.48299,0.0309 -1.37494,0.0628 0,0 3.91244,3.49215 3.91244,3.49215 v 0 c 0.88699,-0.0518 0.43127,-0.021 1.3671,-0.0939 1.87134,-0.1854 3.7336,-0.47034 5.57455,-0.93514 0.77567,-0.14937 1.08181,-0.23581 1.8596,-0.27998 0.26913,-0.0154 0.53985,-0.0296 0.80824,-4.1e-4 0.21675,0.0236 0.81922,0.31058 0.64024,0.15737 -2.47387,-2.11755 -5.05572,-3.49027 -3.28153,-2.53105 0.60113,0.80471 0.22119,2.09541 0.1672,3.07042 -0.25761,2.21209 -0.60918,4.40536 -0.92919,6.60417 -0.38237,2.39504 -0.6185,4.81665 -0.91366,7.22953 -0.25345,2.13157 -0.23221,4.26651 -0.22355,6.41803 -0.004,1.98191 -0.0126,3.96588 0.0683,5.94576 0.10356,1.93627 0.10209,4.11289 0.91712,5.81874 4.09529,3.04875 3.67729,3.50135 7.15709,3.9182 1.75934,0.33023 3.51565,0.75488 5.20995,1.43776 0.2821,0.12324 0.56653,0.2387 0.84632,0.36982 1.75494,0.82243 2.20669,1.44943 -2.6349,-2.11129 -0.33917,-0.24944 0.6754,0.5053 1.01936,0.74448 0.0854,0.0594 0.17529,0.1085 0.26294,0.1627 0.059,0.0258 0.13851,0.0162 0.17706,0.0773 0.0786,0.12445 -0.14701,0.2647 -0.24841,0.36059 -0.41072,0.38849 -0.87643,0.67129 -1.2923,1.05121 -2.12099,1.8632 -4.27423,3.67946 -6.52799,5.28921 -2.90516,2.25561 -5.81153,4.5123 -8.5269,7.11432 -2.23163,2.01854 -4.51139,3.9537 -6.85308,5.7715 -0.39073,0.19722 -0.55641,0.36577 -0.96532,0.31507 -0.095,-0.0122 -0.35174,-0.17895 -0.27038,-0.11715 7.18705,5.46535 4.44072,3.80774 3.36479,2.23847 -0.90598,-1.34031 -1.83605,-2.65328 -2.6821,-4.05358 -1.24152,-1.90785 -2.64317,-3.63475 -4.07276,-5.32631 -1.15206,-1.21589 -2.217,-2.55451 -3.40025,-3.72747 -1.33239,-1.40158 -2.57942,-2.91567 -3.67889,-4.60468 -1.10962,-1.85755 -2.232561,-3.70818 -3.066566,-5.78551 -0.374395,-0.92147 -0.841446,-1.20468 0.155105,-1.22913 1.407456,-0.1363 2.808351,-0.36992 4.189941,-0.73415 1.95375,-0.53333 3.9,-1.13876 5.82022,-1.83095 0.78433,-0.33662 1.59233,-0.67535 2.16942,-1.45151 0.3907,-0.67811 0.35824,-1.41449 0.32642,-2.22045 -0.0217,-1.79057 -0.0729,-3.58041 -0.11804,-5.37021 -0.0826,-2.36798 -0.16667,-4.73663 -0.35294,-7.09641 0.006,-1.3004 -0.002,-2.60105 0.0236,-3.90116 0.0621,-2.18989 0.18975,-4.37867 0.49472,-6.53996 0.31538,-2.24467 0.6221,-4.48958 0.79295,-6.75963 z" />
    <path
       style="fill:#000000;fill-opacity:1;stroke:#000000;stroke-width:0.361273;stroke-opacity:1"
       id="path9"
       d="m 120.40527,108.39231 c -1.45271,0.0234 -2.90569,0.0173 -4.3585,0.0122 -1.32224,1.5e-4 -2.64448,-8e-4 -3.96673,-0.005 -1.20311,-0.006 -2.40624,0.006 -3.60935,10e-4 -0.86379,-0.003 -1.72759,-0.0122 -2.59139,-0.0137 0,0 3.93525,3.5407 3.93525,3.5407 v 0 c 0.85376,-0.002 1.7075,-0.0106 2.56126,-0.0137 1.20398,-0.005 2.40796,0.008 3.61195,0.001 1.31843,-0.005 2.63686,-0.005 3.95529,-0.005 1.46216,-0.005 2.92448,-0.0106 4.38655,0.0122 z" />
    <text
       xml:space="preserve"
       transform="matrix(0.32464407,0,0,0.40203541,-25.174035,-40.953726)"
       id="text9"
       style="font-size:24px;text-align:start;writing-mode:lr-tb;direction:ltr;white-space:pre;shape-inside:url(#rect10);display:inline;opacity:0.87793;fill:#161fcf;fill-opacity:1;stroke:#000000;stroke-opacity:1"><tspan
         x="103.83398"
         y="240.72763"
         id="tspan3">Before reading the </tspan><tspan
         x="103.83398"
         y="270.72763"
         id="tspan4">documentation</tspan></text>
    <text
       xml:space="preserve"
       transform="matrix(0.32464407,0,0,0.40203541,-22.04635,117.20767)"
       id="text9-2"
       style="font-size:24px;text-align:start;writing-mode:lr-tb;direction:ltr;white-space:pre;shape-inside:url(#rect10-9);display:inline;opacity:0.87793;fill:#161fcf;fill-opacity:1;stroke:#000000;stroke-opacity:1"><tspan
         x="103.83398"
         y="240.72763"
         id="tspan5">After reading the </tspan><tspan
         x="103.83398"
         y="270.72763"
         id="tspan6">documentation</tspan></text>
  </g>
</svg>
